<?xml version="1.0" encoding="UTF-8" standalone="no"?><!DOCTYPE svg PUBLIC "-//W3C//DTD SVG 1.1//EN" "http://www.w3.org/Graphics/SVG/1.1/DTD/svg11.dtd"><svg width="100%" height="100%" viewBox="0 0 400 400" version="1.1" xmlns="http://www.w3.org/2000/svg" xmlns:xlink="http://www.w3.org/1999/xlink" xml:space="preserve" style="fill-rule:evenodd;clip-rule:evenodd;stroke-linejoin:round;stroke-miterlimit:1.41421;"><g id="Background"><rect x="0" y="0" width="400" height="400" style="fill:#2b90d9;"/><path d="M121.875,243.344l-26.125,0l0,-50.188l-23.563,29.063l-2.062,0l-23.625,-29.063l0,50.188l-25.375,0l0,-86.625l23.688,0l26.624,32.5l26.75,-32.5l23.688,0l0,86.625Z" style="fill:#fff;fill-rule:nonzero;"/><path d="M238.875,243.344l-26.75,0l-7.063,-17.563l-37.624,0l-7.188,17.563l-26.75,0l38.312,-86.625l28.875,0l38.188,86.625Zm-39.812,-32.625l-12.688,-31.625l-12.812,31.625l25.5,0Z" style="fill:#fff;fill-rule:nonzero;"/><path d="M332.062,237.219c-1.875,0.708 -3.479,1.291 -4.812,1.75c-1.333,0.458 -2.615,0.875 -3.844,1.25c-1.229,0.375 -3.01,0.854 -5.344,1.437c-3.958,0.917 -7.906,1.615 -11.843,2.094c-3.938,0.479 -8.094,0.719 -12.469,0.719c-8.792,0 -16.917,-1.604 -24.375,-4.813c-7.458,-3.208 -13.427,-8.187 -17.906,-14.937c-4.479,-6.75 -6.719,-15.042 -6.719,-24.875c0,-6.334 1.156,-12.552 3.469,-18.657c2.312,-6.104 5.843,-10.989 10.593,-14.656c3.917,-3.041 7.886,-5.364 11.907,-6.968c4.021,-1.605 7.948,-2.678 11.781,-3.219c3.833,-0.542 8.062,-0.813 12.687,-0.813c7.625,0 13.917,0.573 18.875,1.719c4.959,1.146 10.396,2.656 16.313,4.531l0,20.5c-3.917,-2.291 -8.063,-4.208 -12.438,-5.75c-4.375,-1.541 -9.833,-2.312 -16.375,-2.312c-7.541,0 -13.572,1.427 -18.093,4.281c-4.521,2.854 -7.667,6.26 -9.438,10.219c-1.771,3.958 -2.656,7.791 -2.656,11.5c0,4.375 1.021,8.406 3.062,12.094c2.042,3.687 5.125,6.645 9.25,8.875c4.125,2.229 9.105,3.343 14.938,3.343c3.333,0 6.875,-0.437 10.625,-1.312l0,-10.188l-11.75,0l0,-17.437l34.562,0l0,41.625Z" style="fill:#fff;fill-rule:nonzero;"/><rect x="352.75" y="156.719" width="26.125" height="86.625" style="fill:#fff;fill-rule:nonzero;"/></g></svg>